<mxfile host="app.diagrams.net" modified="2023-06-04T18:57:08.051Z" agent="Mozilla/5.0 (Windows NT 10.0; Win64; x64) AppleWebKit/537.36 (KHTML, like Gecko) Chrome/114.0.0.0 Safari/537.36" etag="Kl3bpeO0Dqwf8JsiCyGk" version="21.3.7" type="device">
  <diagram name="Страница 1" id="xG9S1LEQsfOSXKWjndu7">
    <mxGraphModel dx="794" dy="740" grid="1" gridSize="10" guides="1" tooltips="1" connect="1" arrows="1" fold="1" page="1" pageScale="1" pageWidth="827" pageHeight="1169" math="0" shadow="0">
      <root>
        <mxCell id="0" />
        <mxCell id="1" parent="0" />
        <mxCell id="6ofKbNiDNibnKtttkT18-8" value="" style="edgeStyle=orthogonalEdgeStyle;rounded=0;orthogonalLoop=1;jettySize=auto;html=1;" edge="1" parent="1" source="6ofKbNiDNibnKtttkT18-1" target="6ofKbNiDNibnKtttkT18-3">
          <mxGeometry relative="1" as="geometry" />
        </mxCell>
        <mxCell id="6ofKbNiDNibnKtttkT18-1" value="Start" style="ellipse;whiteSpace=wrap;html=1;" vertex="1" parent="1">
          <mxGeometry x="354" y="20" width="120" height="40" as="geometry" />
        </mxCell>
        <mxCell id="6ofKbNiDNibnKtttkT18-10" style="edgeStyle=orthogonalEdgeStyle;rounded=0;orthogonalLoop=1;jettySize=auto;html=1;exitX=0.5;exitY=1;exitDx=0;exitDy=0;entryX=0.5;entryY=0;entryDx=0;entryDy=0;" edge="1" parent="1" source="6ofKbNiDNibnKtttkT18-2" target="6ofKbNiDNibnKtttkT18-4">
          <mxGeometry relative="1" as="geometry" />
        </mxCell>
        <mxCell id="6ofKbNiDNibnKtttkT18-2" value="index=0&lt;br&gt;counter=0" style="rounded=0;whiteSpace=wrap;html=1;" vertex="1" parent="1">
          <mxGeometry x="354" y="130" width="120" height="40" as="geometry" />
        </mxCell>
        <mxCell id="6ofKbNiDNibnKtttkT18-9" style="edgeStyle=orthogonalEdgeStyle;rounded=0;orthogonalLoop=1;jettySize=auto;html=1;exitX=0.5;exitY=1;exitDx=0;exitDy=0;entryX=0.5;entryY=0;entryDx=0;entryDy=0;" edge="1" parent="1" source="6ofKbNiDNibnKtttkT18-3" target="6ofKbNiDNibnKtttkT18-2">
          <mxGeometry relative="1" as="geometry" />
        </mxCell>
        <mxCell id="6ofKbNiDNibnKtttkT18-3" value="string[] array" style="shape=parallelogram;perimeter=parallelogramPerimeter;whiteSpace=wrap;html=1;fixedSize=1;" vertex="1" parent="1">
          <mxGeometry x="354" y="80" width="120" height="30" as="geometry" />
        </mxCell>
        <mxCell id="6ofKbNiDNibnKtttkT18-11" style="edgeStyle=orthogonalEdgeStyle;rounded=0;orthogonalLoop=1;jettySize=auto;html=1;exitX=0.5;exitY=1;exitDx=0;exitDy=0;entryX=0.5;entryY=0;entryDx=0;entryDy=0;" edge="1" parent="1" source="6ofKbNiDNibnKtttkT18-4" target="6ofKbNiDNibnKtttkT18-6">
          <mxGeometry relative="1" as="geometry" />
        </mxCell>
        <mxCell id="6ofKbNiDNibnKtttkT18-20" style="edgeStyle=orthogonalEdgeStyle;rounded=0;orthogonalLoop=1;jettySize=auto;html=1;exitX=1;exitY=0.5;exitDx=0;exitDy=0;entryX=1;entryY=0.5;entryDx=0;entryDy=0;" edge="1" parent="1" source="6ofKbNiDNibnKtttkT18-4" target="6ofKbNiDNibnKtttkT18-22">
          <mxGeometry relative="1" as="geometry">
            <mxPoint x="550" y="600" as="targetPoint" />
            <Array as="points">
              <mxPoint x="540" y="230" />
              <mxPoint x="540" y="515" />
            </Array>
          </mxGeometry>
        </mxCell>
        <mxCell id="6ofKbNiDNibnKtttkT18-4" value="index&amp;lt;array.Length" style="rhombus;whiteSpace=wrap;html=1;" vertex="1" parent="1">
          <mxGeometry x="336" y="190" width="156" height="80" as="geometry" />
        </mxCell>
        <mxCell id="6ofKbNiDNibnKtttkT18-12" style="edgeStyle=orthogonalEdgeStyle;rounded=0;orthogonalLoop=1;jettySize=auto;html=1;exitX=0.5;exitY=1;exitDx=0;exitDy=0;entryX=0.5;entryY=0;entryDx=0;entryDy=0;" edge="1" parent="1" source="6ofKbNiDNibnKtttkT18-6" target="6ofKbNiDNibnKtttkT18-7">
          <mxGeometry relative="1" as="geometry" />
        </mxCell>
        <mxCell id="6ofKbNiDNibnKtttkT18-17" style="edgeStyle=orthogonalEdgeStyle;rounded=0;orthogonalLoop=1;jettySize=auto;html=1;exitX=1;exitY=0.5;exitDx=0;exitDy=0;entryX=1;entryY=0.5;entryDx=0;entryDy=0;" edge="1" parent="1" source="6ofKbNiDNibnKtttkT18-6" target="6ofKbNiDNibnKtttkT18-15">
          <mxGeometry relative="1" as="geometry" />
        </mxCell>
        <mxCell id="6ofKbNiDNibnKtttkT18-6" value="array[index].Length&amp;lt;3" style="rhombus;whiteSpace=wrap;html=1;" vertex="1" parent="1">
          <mxGeometry x="336" y="289" width="156" height="80" as="geometry" />
        </mxCell>
        <mxCell id="6ofKbNiDNibnKtttkT18-16" style="edgeStyle=orthogonalEdgeStyle;rounded=0;orthogonalLoop=1;jettySize=auto;html=1;exitX=0.5;exitY=1;exitDx=0;exitDy=0;entryX=0.5;entryY=0;entryDx=0;entryDy=0;" edge="1" parent="1" source="6ofKbNiDNibnKtttkT18-7" target="6ofKbNiDNibnKtttkT18-15">
          <mxGeometry relative="1" as="geometry" />
        </mxCell>
        <mxCell id="6ofKbNiDNibnKtttkT18-7" value="counter++" style="rounded=0;whiteSpace=wrap;html=1;" vertex="1" parent="1">
          <mxGeometry x="354" y="390" width="120" height="25" as="geometry" />
        </mxCell>
        <mxCell id="6ofKbNiDNibnKtttkT18-13" value="Yes" style="text;html=1;align=center;verticalAlign=middle;resizable=0;points=[];autosize=1;strokeColor=none;fillColor=none;" vertex="1" parent="1">
          <mxGeometry x="420" y="268" width="40" height="30" as="geometry" />
        </mxCell>
        <mxCell id="6ofKbNiDNibnKtttkT18-14" value="Yes" style="text;html=1;align=center;verticalAlign=middle;resizable=0;points=[];autosize=1;strokeColor=none;fillColor=none;" vertex="1" parent="1">
          <mxGeometry x="414" y="360" width="40" height="30" as="geometry" />
        </mxCell>
        <mxCell id="6ofKbNiDNibnKtttkT18-19" style="edgeStyle=orthogonalEdgeStyle;rounded=0;orthogonalLoop=1;jettySize=auto;html=1;exitX=0;exitY=0.5;exitDx=0;exitDy=0;entryX=0;entryY=0.5;entryDx=0;entryDy=0;" edge="1" parent="1" source="6ofKbNiDNibnKtttkT18-15" target="6ofKbNiDNibnKtttkT18-4">
          <mxGeometry relative="1" as="geometry" />
        </mxCell>
        <mxCell id="6ofKbNiDNibnKtttkT18-46" style="edgeStyle=orthogonalEdgeStyle;rounded=0;orthogonalLoop=1;jettySize=auto;html=1;exitX=0.5;exitY=1;exitDx=0;exitDy=0;" edge="1" parent="1" source="6ofKbNiDNibnKtttkT18-15">
          <mxGeometry relative="1" as="geometry">
            <mxPoint x="414" y="470" as="targetPoint" />
          </mxGeometry>
        </mxCell>
        <mxCell id="6ofKbNiDNibnKtttkT18-15" value="index++" style="rounded=0;whiteSpace=wrap;html=1;" vertex="1" parent="1">
          <mxGeometry x="354" y="435" width="120" height="20" as="geometry" />
        </mxCell>
        <mxCell id="6ofKbNiDNibnKtttkT18-18" value="No" style="text;html=1;align=center;verticalAlign=middle;resizable=0;points=[];autosize=1;strokeColor=none;fillColor=none;" vertex="1" parent="1">
          <mxGeometry x="480" y="297" width="40" height="30" as="geometry" />
        </mxCell>
        <mxCell id="6ofKbNiDNibnKtttkT18-38" style="edgeStyle=orthogonalEdgeStyle;rounded=0;orthogonalLoop=1;jettySize=auto;html=1;exitX=0.5;exitY=1;exitDx=0;exitDy=0;entryX=0.5;entryY=0;entryDx=0;entryDy=0;" edge="1" parent="1" source="6ofKbNiDNibnKtttkT18-22" target="6ofKbNiDNibnKtttkT18-24">
          <mxGeometry relative="1" as="geometry" />
        </mxCell>
        <mxCell id="6ofKbNiDNibnKtttkT18-47" style="edgeStyle=orthogonalEdgeStyle;rounded=0;orthogonalLoop=1;jettySize=auto;html=1;exitX=0;exitY=0.5;exitDx=0;exitDy=0;" edge="1" parent="1" source="6ofKbNiDNibnKtttkT18-22" target="6ofKbNiDNibnKtttkT18-41">
          <mxGeometry relative="1" as="geometry" />
        </mxCell>
        <mxCell id="6ofKbNiDNibnKtttkT18-22" value="counter&amp;gt;0" style="rhombus;whiteSpace=wrap;html=1;" vertex="1" parent="1">
          <mxGeometry x="374" y="475" width="80" height="80" as="geometry" />
        </mxCell>
        <mxCell id="6ofKbNiDNibnKtttkT18-23" value="No" style="text;html=1;align=center;verticalAlign=middle;resizable=0;points=[];autosize=1;strokeColor=none;fillColor=none;" vertex="1" parent="1">
          <mxGeometry x="480" y="200" width="40" height="30" as="geometry" />
        </mxCell>
        <mxCell id="6ofKbNiDNibnKtttkT18-39" style="edgeStyle=orthogonalEdgeStyle;rounded=0;orthogonalLoop=1;jettySize=auto;html=1;exitX=0.5;exitY=1;exitDx=0;exitDy=0;entryX=0.5;entryY=0;entryDx=0;entryDy=0;" edge="1" parent="1" source="6ofKbNiDNibnKtttkT18-24" target="6ofKbNiDNibnKtttkT18-26">
          <mxGeometry relative="1" as="geometry">
            <mxPoint x="414" y="645" as="targetPoint" />
          </mxGeometry>
        </mxCell>
        <mxCell id="6ofKbNiDNibnKtttkT18-24" value="string[counter]ResultArray&lt;br&gt;counter=0&lt;br&gt;index=0" style="rounded=0;whiteSpace=wrap;html=1;" vertex="1" parent="1">
          <mxGeometry x="331" y="575" width="166" height="50" as="geometry" />
        </mxCell>
        <mxCell id="6ofKbNiDNibnKtttkT18-25" style="edgeStyle=orthogonalEdgeStyle;rounded=0;orthogonalLoop=1;jettySize=auto;html=1;exitX=0.5;exitY=1;exitDx=0;exitDy=0;entryX=0.5;entryY=0;entryDx=0;entryDy=0;" edge="1" parent="1" source="6ofKbNiDNibnKtttkT18-26" target="6ofKbNiDNibnKtttkT18-29">
          <mxGeometry relative="1" as="geometry" />
        </mxCell>
        <mxCell id="6ofKbNiDNibnKtttkT18-50" style="edgeStyle=orthogonalEdgeStyle;rounded=0;orthogonalLoop=1;jettySize=auto;html=1;exitX=1;exitY=0.5;exitDx=0;exitDy=0;entryX=1;entryY=0.5;entryDx=0;entryDy=0;" edge="1" parent="1" source="6ofKbNiDNibnKtttkT18-26" target="6ofKbNiDNibnKtttkT18-45">
          <mxGeometry relative="1" as="geometry">
            <Array as="points">
              <mxPoint x="560" y="695" />
              <mxPoint x="560" y="1098" />
            </Array>
          </mxGeometry>
        </mxCell>
        <mxCell id="6ofKbNiDNibnKtttkT18-26" value="index&amp;lt;array.Length" style="rhombus;whiteSpace=wrap;html=1;" vertex="1" parent="1">
          <mxGeometry x="336" y="655" width="156" height="80" as="geometry" />
        </mxCell>
        <mxCell id="6ofKbNiDNibnKtttkT18-27" style="edgeStyle=orthogonalEdgeStyle;rounded=0;orthogonalLoop=1;jettySize=auto;html=1;exitX=0.5;exitY=1;exitDx=0;exitDy=0;entryX=0.5;entryY=0;entryDx=0;entryDy=0;" edge="1" parent="1" source="6ofKbNiDNibnKtttkT18-29" target="6ofKbNiDNibnKtttkT18-31">
          <mxGeometry relative="1" as="geometry" />
        </mxCell>
        <mxCell id="6ofKbNiDNibnKtttkT18-28" style="edgeStyle=orthogonalEdgeStyle;rounded=0;orthogonalLoop=1;jettySize=auto;html=1;exitX=1;exitY=0.5;exitDx=0;exitDy=0;entryX=1;entryY=0.5;entryDx=0;entryDy=0;" edge="1" parent="1" source="6ofKbNiDNibnKtttkT18-29" target="6ofKbNiDNibnKtttkT18-35">
          <mxGeometry relative="1" as="geometry">
            <Array as="points">
              <mxPoint x="530" y="805" />
              <mxPoint x="530" y="945" />
            </Array>
          </mxGeometry>
        </mxCell>
        <mxCell id="6ofKbNiDNibnKtttkT18-29" value="array[index].Length&amp;lt;3" style="rhombus;whiteSpace=wrap;html=1;" vertex="1" parent="1">
          <mxGeometry x="336" y="765" width="156" height="80" as="geometry" />
        </mxCell>
        <mxCell id="6ofKbNiDNibnKtttkT18-30" style="edgeStyle=orthogonalEdgeStyle;rounded=0;orthogonalLoop=1;jettySize=auto;html=1;exitX=0.5;exitY=1;exitDx=0;exitDy=0;entryX=0.5;entryY=0;entryDx=0;entryDy=0;" edge="1" parent="1" source="6ofKbNiDNibnKtttkT18-31" target="6ofKbNiDNibnKtttkT18-35">
          <mxGeometry relative="1" as="geometry" />
        </mxCell>
        <mxCell id="6ofKbNiDNibnKtttkT18-31" value="ResultArray[counter] =array[index]&lt;br&gt;counter++" style="rounded=0;whiteSpace=wrap;html=1;" vertex="1" parent="1">
          <mxGeometry x="311" y="865" width="205" height="40" as="geometry" />
        </mxCell>
        <mxCell id="6ofKbNiDNibnKtttkT18-32" value="Yes" style="text;html=1;align=center;verticalAlign=middle;resizable=0;points=[];autosize=1;strokeColor=none;fillColor=none;" vertex="1" parent="1">
          <mxGeometry x="416" y="733" width="40" height="30" as="geometry" />
        </mxCell>
        <mxCell id="6ofKbNiDNibnKtttkT18-33" value="Yes" style="text;html=1;align=center;verticalAlign=middle;resizable=0;points=[];autosize=1;strokeColor=none;fillColor=none;" vertex="1" parent="1">
          <mxGeometry x="410" y="835" width="40" height="30" as="geometry" />
        </mxCell>
        <mxCell id="6ofKbNiDNibnKtttkT18-34" style="edgeStyle=orthogonalEdgeStyle;rounded=0;orthogonalLoop=1;jettySize=auto;html=1;exitX=0;exitY=0.5;exitDx=0;exitDy=0;entryX=0;entryY=0.5;entryDx=0;entryDy=0;" edge="1" parent="1" source="6ofKbNiDNibnKtttkT18-35" target="6ofKbNiDNibnKtttkT18-26">
          <mxGeometry relative="1" as="geometry">
            <Array as="points">
              <mxPoint x="280" y="945" />
              <mxPoint x="280" y="695" />
            </Array>
          </mxGeometry>
        </mxCell>
        <mxCell id="6ofKbNiDNibnKtttkT18-35" value="index++" style="rounded=0;whiteSpace=wrap;html=1;" vertex="1" parent="1">
          <mxGeometry x="354" y="935" width="120" height="20" as="geometry" />
        </mxCell>
        <mxCell id="6ofKbNiDNibnKtttkT18-36" value="No" style="text;html=1;align=center;verticalAlign=middle;resizable=0;points=[];autosize=1;strokeColor=none;fillColor=none;" vertex="1" parent="1">
          <mxGeometry x="476" y="773" width="40" height="30" as="geometry" />
        </mxCell>
        <mxCell id="6ofKbNiDNibnKtttkT18-37" value="No" style="text;html=1;align=center;verticalAlign=middle;resizable=0;points=[];autosize=1;strokeColor=none;fillColor=none;" vertex="1" parent="1">
          <mxGeometry x="474" y="670" width="40" height="30" as="geometry" />
        </mxCell>
        <mxCell id="6ofKbNiDNibnKtttkT18-40" value="Yes" style="text;html=1;align=center;verticalAlign=middle;resizable=0;points=[];autosize=1;strokeColor=none;fillColor=none;" vertex="1" parent="1">
          <mxGeometry x="410" y="545" width="40" height="30" as="geometry" />
        </mxCell>
        <mxCell id="6ofKbNiDNibnKtttkT18-48" style="edgeStyle=orthogonalEdgeStyle;rounded=0;orthogonalLoop=1;jettySize=auto;html=1;exitX=0.5;exitY=1;exitDx=0;exitDy=0;entryX=0;entryY=0.5;entryDx=0;entryDy=0;" edge="1" parent="1" source="6ofKbNiDNibnKtttkT18-41" target="6ofKbNiDNibnKtttkT18-45">
          <mxGeometry relative="1" as="geometry" />
        </mxCell>
        <mxCell id="6ofKbNiDNibnKtttkT18-41" value="&quot;в массиве нет строк из 3х символов и менее&quot;" style="shape=parallelogram;perimeter=parallelogramPerimeter;whiteSpace=wrap;html=1;fixedSize=1;" vertex="1" parent="1">
          <mxGeometry x="110" y="475" width="190" height="80" as="geometry" />
        </mxCell>
        <mxCell id="6ofKbNiDNibnKtttkT18-44" style="edgeStyle=orthogonalEdgeStyle;rounded=0;orthogonalLoop=1;jettySize=auto;html=1;exitX=0.5;exitY=1;exitDx=0;exitDy=0;" edge="1" parent="1" source="6ofKbNiDNibnKtttkT18-42">
          <mxGeometry relative="1" as="geometry">
            <mxPoint x="414" y="1075" as="targetPoint" />
          </mxGeometry>
        </mxCell>
        <mxCell id="6ofKbNiDNibnKtttkT18-42" value="resultArray[]" style="shape=parallelogram;perimeter=parallelogramPerimeter;whiteSpace=wrap;html=1;fixedSize=1;" vertex="1" parent="1">
          <mxGeometry x="354" y="985" width="120" height="60" as="geometry" />
        </mxCell>
        <mxCell id="6ofKbNiDNibnKtttkT18-45" value="End" style="ellipse;whiteSpace=wrap;html=1;" vertex="1" parent="1">
          <mxGeometry x="354" y="1075" width="120" height="45" as="geometry" />
        </mxCell>
        <mxCell id="6ofKbNiDNibnKtttkT18-49" value="No" style="text;html=1;align=center;verticalAlign=middle;resizable=0;points=[];autosize=1;strokeColor=none;fillColor=none;" vertex="1" parent="1">
          <mxGeometry x="336" y="490" width="40" height="30" as="geometry" />
        </mxCell>
      </root>
    </mxGraphModel>
  </diagram>
</mxfile>
